<?xml version="1.0" encoding="UTF-8"?>
<svg id="Layer_1" xmlns="http://www.w3.org/2000/svg" version="1.1" xmlns:xlink="http://www.w3.org/1999/xlink" viewBox="0 0 255.8 255.8">
  <!-- Generator: Adobe Illustrator 29.6.1, SVG Export Plug-In . SVG Version: 2.1.1 Build 9)  -->
  <defs>
    <style>
      .st0 {
        fill: url(#radial-gradient);
      }
    </style>
    <radialGradient id="radial-gradient" cx="127.9" cy="127.9" fx="127.9" fy="127.9" r="120.1" gradientUnits="userSpaceOnUse">
      <stop offset="0" stop-color="#fff"/>
      <stop offset="1" stop-color="#000"/>
    </radialGradient>
  </defs>
  <path class="st0" d="M127.9,248c-66.2,0-120.1-53.9-120.1-120.1S61.7,7.8,127.9,7.8s120.1,53.9,120.1,120.1-53.9,120.1-120.1,120.1Z"/>
  <path d="M127.9,8.3c31.9,0,62,12.4,84.6,35,22.6,22.6,35,52.6,35,84.6s-12.4,62-35,84.6c-22.6,22.6-52.6,35-84.6,35s-62-12.4-84.6-35c-22.6-22.6-35-52.6-35-84.6s12.4-62,35-84.6C65.9,20.7,95.9,8.3,127.9,8.3M127.9,7.3C61.3,7.3,7.3,61.3,7.3,127.9s54,120.6,120.6,120.6,120.6-54,120.6-120.6S194.5,7.3,127.9,7.3h0Z"/>
</svg>